<svg width="167" height="82" viewBox="0 0 167 82" fill="none" xmlns="http://www.w3.org/2000/svg">
<path d="M22.0994 14.0381L28.4983 19.8622C28.945 19.8622 29.2418 19.7132 29.6911 19.7132L21.0576 11.7983L12.5752 19.7132C13.6169 19.8622 14.3605 19.8622 15.552 20.0125L22.0994 14.0381Z" fill="#00215D"/>
<path d="M21.059 21.6499C17.8712 21.6241 14.6892 21.3748 11.5361 20.9038L1.86084 22.6953C6.32604 24.7861 15.0311 24.9351 21.1332 24.9351C27.2352 24.9351 36.5367 24.9351 40.4055 22.6953L30.8867 20.9038C27.6831 21.3807 24.45 21.63 21.2114 21.6499H21.059Z" fill="#00215D"/>
<path d="M31.2524 18.2197L21.0576 9.1105V10.4551L30.8813 19.414C33.1133 19.8623 38.1709 20.6111 41.0762 21.2056V22.251C38.6987 24.0777 36.0325 25.4912 33.1888 26.4325H21.059V38.4544H33.9297V27.4792C36.8547 26.3152 39.6084 24.7577 42.1153 22.8495V21.5048V20.3078L31.1769 18.217L31.2524 18.2197ZM21.0576 9.1105V8.96021L11.0868 18.2197L0 20.3105V22.7045C2.45097 24.6546 5.1542 26.2622 8.03578 27.4832V38.4597H21.0576V26.4338H8.92908C6.08472 25.5302 3.45281 24.0565 1.19284 22.102V21.2056C3.72299 20.9063 9.08017 19.712 11.3121 19.2638L20.9874 10.4525V9.10917L21.0576 9.1105Z" fill="#00215D"/>
<path d="M126.868 23.4467H121.317V19.7133C122.391 19.1686 123.297 18.3411 123.939 17.3193V17.1704C127.023 15.9734 130.566 13.586 131.34 11.7945V9.40048C126.714 9.54944 121.625 9.99765 117.076 8.95227C115.941 6.09324 115.264 3.07166 115.071 0H112.599C112.753 0.299251 112.445 1.04538 112.136 1.04538C105.356 1.84425 98.5314 2.19347 91.7057 2.09077H75.2882C68.4624 2.19347 61.6374 1.84425 54.8575 1.04538C54.5486 1.04538 54.3949 0.299251 54.3949 0H51.927C51.7354 3.07429 51.059 6.09862 49.9231 8.96025C45.4512 10.0056 40.3631 9.55742 35.6593 9.40846V11.8025C36.4307 13.7443 40.1312 15.984 43.3691 17.3286C43.9934 18.3092 44.8382 19.1292 45.8356 19.7227V23.456H40.1365L35.1968 26.1346H131.802L126.868 23.4467Z" fill="#00215D"/>
<path d="M32.6664 28.123H9.22705V37.8308H32.6664V28.123Z" fill="#E6E7E8"/>
<path d="M91.6491 31.1726H75.502V31.6208H91.6491V31.1726Z" fill="#00215D"/>
<path d="M64.8286 29.3225H70.7809V36.6375H64.8286V29.3225Z" fill="#00215D"/>
<path d="M56.9238 29.3225H62.8761V36.6375H56.9238V29.3225Z" fill="#00215D"/>
<path d="M48.9434 29.3225H54.8956V36.6375H48.9434V29.3225Z" fill="#00215D"/>
<path d="M41.0415 29.3225H47.1382V36.6375H41.0415V29.3225Z" fill="#00215D"/>
<path d="M39.1013 29.3225H33.8926V36.6402H39.1013V29.3225Z" fill="#00215D"/>
<path d="M68.8756 29.2681H33.9028V29.8652H68.8756V29.2681Z" fill="#00215D"/>
<path d="M154.497 19.7132L146.015 11.7983L137.382 19.7132C137.829 19.7132 138.126 19.8622 138.575 19.8622L144.974 14.0381L151.523 20.0111C152.716 19.8622 153.458 19.8622 154.5 19.7119L154.497 19.7132Z" fill="#00215D"/>
<path d="M146.014 24.9363C152.111 24.9363 160.823 24.7873 165.286 22.6965L155.611 20.905C152.458 21.3761 149.275 21.6254 146.087 21.6512C142.849 21.6255 139.616 21.3762 136.412 20.905L126.89 22.6952C130.759 24.9349 139.912 24.9349 146.162 24.9349L146.014 24.9363Z" fill="#00215D"/>
<path d="M158.962 27.0735H133.141V39.0954H158.962V27.0735Z" fill="#00215D"/>
<path d="M157.77 28.123H134.331V37.8308H157.77V28.123Z" fill="#E6E7E8"/>
<path d="M155.985 18.2197L146.015 8.96021L135.82 18.2197L124.881 20.3105V22.8495C127.602 25.0044 130.673 26.6715 133.959 27.7771V26.5801C131.089 25.527 128.383 24.0689 125.923 22.2496V21.2042C128.9 20.6071 133.81 19.8596 136.118 19.4127L145.94 10.4525L155.616 19.2638C157.848 19.712 163.206 20.9063 165.81 21.2056V22.102C163.55 24.0564 160.917 25.5296 158.071 26.4325V27.7771C161.317 26.6136 164.338 24.8957 167.001 22.6992V20.3052L155.914 18.2144L155.985 18.2197Z" fill="#00215D"/>
<path d="M102.245 29.3225H96.293V36.6375H102.245V29.3225Z" fill="#00215D"/>
<path d="M110.149 29.3225H104.196V36.6375H110.149V29.3225Z" fill="#00215D"/>
<path d="M118.128 29.3225H112.176V36.6375H118.128V29.3225Z" fill="#00215D"/>
<path d="M126.033 29.3225H120.081V36.6375H126.033V29.3225Z" fill="#00215D"/>
<path d="M133.182 29.3225H128.122V36.6402H133.182V29.3225Z" fill="#00215D"/>
<path d="M133.247 29.2681H98.2744V29.8652H133.247V29.2681Z" fill="#00215D"/>
<path d="M156.431 29.4744H151.52V36.6431H156.431V29.4744Z" fill="#00215D"/>
<path d="M140.582 29.4744H135.521V36.6431H140.582V29.4744Z" fill="#00215D"/>
<path d="M149.883 29.4744H142.145V36.6431H149.883V29.4744Z" fill="#00215D"/>
<path d="M156.432 30.9453H151.372V31.5425H156.432V30.9453Z" fill="#E6E7E8"/>
<path d="M140.73 30.9453H135.521V31.5425H140.73V30.9453Z" fill="#E6E7E8"/>
<path d="M150.032 30.9453H141.996V31.5425H150.032V30.9453Z" fill="#E6E7E8"/>
<path d="M6.99365 37.8879H160.002V39.2326H6.99365V37.8879Z" fill="#00215D"/>
<path d="M75.5 32.7288H78.6252V36.7613H75.5V32.7288ZM79.8154 32.7288H87.2561V36.7613H79.8154V32.7288ZM88.4476 32.7288H91.5729V36.7613H88.4476V32.7288Z" fill="#00215D"/>
<path d="M72.7476 29.324H94.3274V36.7161H92.9132V30.2204H74.1617V36.7161H72.7476V29.324Z" fill="#00215D"/>
<path d="M48.2648 18.777H118.731C119.237 18.7355 119.737 18.6351 120.22 18.4778C119.815 18.9419 119.304 19.3006 118.731 19.5232V25.4962H48.2648V19.5232C47.7128 19.2625 47.2094 18.9089 46.7764 18.4778C47.2593 18.6351 47.7588 18.7355 48.2648 18.777Z" fill="#E6E7E8"/>
<path d="M55.0469 20.1443H48.9448V24.774H55.0469V20.1443Z" fill="#00215D"/>
<path d="M55.0469 21.3398H48.9448V21.7881H55.0469V21.3398Z" fill="#E6E7E8"/>
<path d="M56.9238 20.1443H62.8761V24.774H56.9238V20.1443Z" fill="#00215D"/>
<path d="M64.8286 20.1443H70.7809V24.774H64.8286V20.1443Z" fill="#00215D"/>
<path d="M72.5815 20.1443H78.6783V24.774H72.5815V20.1443Z" fill="#00215D"/>
<path d="M80.5605 20.1443H86.5128V24.774H80.5605V20.1443Z" fill="#00215D"/>
<path d="M88.4653 20.1443H94.4176V24.774H88.4653V20.1443Z" fill="#00215D"/>
<path d="M96.2939 20.1443H102.391V24.774H96.2939V20.1443Z" fill="#00215D"/>
<path d="M104.196 20.1443H110.149V24.774H104.196V20.1443Z" fill="#00215D"/>
<path d="M118.053 20.1443H112.101V24.774H118.053V20.1443Z" fill="#00215D"/>
<path d="M56.9238 21.3398H62.8761V21.7881H56.9238V21.3398Z" fill="#E6E7E8"/>
<path d="M64.8286 21.3398H70.7809V21.7881H64.8286V21.3398Z" fill="#E6E7E8"/>
<path d="M72.5815 21.3398H78.6783V21.7881H72.5815V21.3398Z" fill="#E6E7E8"/>
<path d="M80.5605 21.3398H86.5128V21.7881H80.5605V21.3398Z" fill="#E6E7E8"/>
<path d="M88.4653 21.3398H94.4176V21.7881H88.4653V21.3398Z" fill="#E6E7E8"/>
<path d="M96.2939 21.3398H102.391V21.7881H96.2939V21.3398Z" fill="#E6E7E8"/>
<path d="M104.196 21.3398H110.149V21.7881H104.196V21.3398Z" fill="#E6E7E8"/>
<path d="M118.053 21.3398H112.101V21.7881H118.053V21.3398Z" fill="#E6E7E8"/>
<path d="M40.4 25.0002H126.964L128.974 25.5974H38.5444L40.4 25.0002Z" fill="#E6E7E8"/>
<path d="M83.5374 25.4908C81.0072 25.4908 78.1802 25.6398 75.65 25.4908L75.2034 27.8848C74.2051 28.2903 73.1514 28.5419 72.0781 28.6309V30.1245H72.2266C73.2534 30.3954 74.2976 30.595 75.3518 30.7217C76.4387 30.8425 77.5322 30.8923 78.6255 30.8707H88.4479C89.5412 30.8956 90.635 30.8458 91.7216 30.7217C92.7758 30.595 93.82 30.3954 94.8468 30.1245H94.9953V28.627C93.9248 28.5208 92.8735 28.2698 91.87 27.8808L91.4234 25.4868C88.7461 25.6398 85.4724 25.4908 83.5374 25.4908Z" fill="#E6E7E8"/>
<path d="M90.8324 26.2422C88.3023 26.3911 85.6237 26.3911 83.5429 26.3911C81.462 26.3911 78.7808 26.3911 76.3991 26.2422C76.3991 26.2422 76.1009 28.184 75.6555 28.4819C74.6115 28.9331 73.5095 29.2349 72.3818 29.3783C76.0838 30.0797 79.8566 30.3302 83.6184 30.1245C87.3802 30.3277 91.1527 30.0772 94.855 29.3783C93.7273 29.2349 92.6253 28.9331 91.5813 28.4819C91.1346 28.1827 90.9862 26.2422 90.9862 26.2422H90.8324Z" fill="#00215D"/>
<path d="M130.162 10.6028C125.376 10.9021 120.281 11.051 116.343 10.0057C116.19 10.0057 116.19 9.8567 116.034 9.70641C114.848 6.95708 114.118 4.03142 113.873 1.04541C113.856 1.31549 113.759 1.57426 113.593 1.78785C113.428 2.00143 113.202 2.15987 112.945 2.24242C106.567 2.98774 100.146 3.28727 93.727 3.13884H90.4825C88.167 3.2878 85.8503 3.2878 83.5348 3.2878V4.4848C93.2618 4.4848 103.837 5.08198 113.101 3.2878C113.101 3.2878 114.029 10.4565 115.572 11.3516C117.27 12.248 129.699 11.7998 129.699 11.7998C117.116 16.1303 97.9709 15.2352 83.5348 15.2352V16.7262H119.663C122.596 16.8751 127.075 14.4864 130.24 11.4993V10.6028H130.162ZM83.5348 3.2878C81.2194 3.2878 78.9026 3.2878 76.5872 3.13884H73.3453C66.9264 3.28727 60.5049 2.98774 54.1273 2.24242C53.8705 2.15987 53.6446 2.00143 53.479 1.78785C53.3135 1.57426 53.2161 1.31549 53.1996 1.04541C52.9548 4.03187 52.2246 6.95799 51.0379 9.70774C51.0312 9.78668 50.9963 9.86053 50.9395 9.91556C50.8827 9.9706 50.8079 10.0031 50.729 10.007C46.8695 11.0524 41.7748 10.9034 36.9106 10.6042V11.4993C39.9988 14.4864 44.631 16.8751 47.409 16.7262H83.5348V15.2326C69.0988 15.2326 49.8768 16.129 37.3706 11.7972C37.3706 11.7972 49.7986 12.2454 51.4978 11.349C53.0418 10.4525 53.9683 3.28514 53.9683 3.28514C63.2314 5.07666 73.9616 4.48214 83.5348 4.48214V3.28514V3.2878Z" fill="#E6E7E8"/>
<path d="M15.4764 29.4744H10.5659V36.6431H15.4764V29.4744Z" fill="#00215D"/>
<path d="M31.4763 29.4744H26.416V36.6431H31.4763V29.4744Z" fill="#00215D"/>
<path d="M24.9279 29.4744H17.189V36.6431H24.9279V29.4744Z" fill="#00215D"/>
<path d="M15.6262 30.9453H10.5659V31.5425H15.6262V30.9453Z" fill="#E6E7E8"/>
<path d="M31.4763 30.9453H26.2676V31.5425H31.4763V30.9453Z" fill="#E6E7E8"/>
<path d="M25.0763 30.9453H17.0405V31.5425H25.0763V30.9453Z" fill="#E6E7E8"/>
<path d="M22.0994 14.0381L28.4983 19.8622C28.945 19.8622 29.2418 19.7132 29.6911 19.7132L21.0576 11.7983L12.5752 19.7132C13.6169 19.8622 14.3605 19.8622 15.552 20.0125L22.0994 14.0381Z" fill="#00215D"/>
<path d="M21.059 21.6499C17.8712 21.6241 14.6892 21.3748 11.5361 20.9038L1.86084 22.6953C6.32604 24.7861 15.0311 24.9351 21.1332 24.9351C27.2352 24.9351 36.5367 24.9351 40.4055 22.6953L30.8867 20.9038C27.6831 21.3807 24.45 21.63 21.2114 21.6499H21.059Z" fill="#00215D"/>
<path d="M31.2524 18.2197L21.0576 9.1105V10.4551L30.8813 19.414C33.1133 19.8623 38.1709 20.6111 41.0762 21.2056V22.251C38.6987 24.0777 36.0325 25.4912 33.1888 26.4325H21.059V38.4544H33.9297V27.4792C36.8547 26.3152 39.6084 24.7577 42.1153 22.8495V21.5048V20.3078L31.1769 18.217L31.2524 18.2197ZM21.0576 9.1105V8.96021L11.0868 18.2197L0 20.3105V22.7045C2.45097 24.6546 5.1542 26.2622 8.03578 27.4832V38.4597H21.0576V26.4338H8.92908C6.08472 25.5302 3.45281 24.0565 1.19284 22.102V21.2056C3.72299 20.9063 9.08017 19.712 11.3121 19.2638L20.9874 10.4525V9.10917L21.0576 9.1105Z" fill="#00215D"/>
<path d="M126.868 23.4467H121.317V19.7133C122.391 19.1686 123.297 18.3411 123.939 17.3193V17.1704C127.023 15.9734 130.566 13.586 131.34 11.7945V9.40048C126.714 9.54944 121.625 9.99765 117.076 8.95227C115.941 6.09324 115.264 3.07166 115.071 0H112.599C112.753 0.299251 112.445 1.04538 112.136 1.04538C105.356 1.84425 98.5314 2.19347 91.7057 2.09077H75.2882C68.4624 2.19347 61.6374 1.84425 54.8575 1.04538C54.5486 1.04538 54.3949 0.299251 54.3949 0H51.927C51.7354 3.07429 51.059 6.09862 49.9231 8.96025C45.4512 10.0056 40.3631 9.55742 35.6593 9.40846V11.8025C36.4307 13.7443 40.1312 15.984 43.3691 17.3286C43.9934 18.3092 44.8382 19.1292 45.8356 19.7227V23.456H40.1365L35.1968 26.1346H131.802L126.868 23.4467Z" fill="#00215D"/>
<path d="M32.6664 28.123H9.22705V37.8308H32.6664V28.123Z" fill="white"/>
<path d="M91.6491 31.1726H75.502V31.6208H91.6491V31.1726Z" fill="#00215D"/>
<path d="M64.8286 29.3225H70.7809V36.6375H64.8286V29.3225Z" fill="#00215D"/>
<path d="M56.9238 29.3225H62.8761V36.6375H56.9238V29.3225Z" fill="#00215D"/>
<path d="M48.9434 29.3225H54.8956V36.6375H48.9434V29.3225Z" fill="#00215D"/>
<path d="M41.0415 29.3225H47.1382V36.6375H41.0415V29.3225Z" fill="#00215D"/>
<path d="M39.1013 29.3225H33.8926V36.6402H39.1013V29.3225Z" fill="#00215D"/>
<path d="M68.8756 29.2681H33.9028V29.8652H68.8756V29.2681Z" fill="#00215D"/>
<path d="M154.497 19.7132L146.015 11.7983L137.382 19.7132C137.829 19.7132 138.126 19.8622 138.575 19.8622L144.974 14.0381L151.523 20.0111C152.716 19.8622 153.458 19.8622 154.5 19.7119L154.497 19.7132Z" fill="#00215D"/>
<path d="M146.014 24.9363C152.111 24.9363 160.823 24.7873 165.286 22.6965L155.611 20.905C152.458 21.3761 149.275 21.6254 146.087 21.6512C142.849 21.6255 139.616 21.3762 136.412 20.905L126.89 22.6952C130.759 24.9349 139.912 24.9349 146.162 24.9349L146.014 24.9363Z" fill="#00215D"/>
<path d="M158.962 27.0735H133.141V39.0954H158.962V27.0735Z" fill="#00215D"/>
<path d="M157.77 28.123H134.331V37.8308H157.77V28.123Z" fill="white"/>
<path d="M155.985 18.2197L146.015 8.96021L135.82 18.2197L124.881 20.3105V22.8495C127.602 25.0044 130.673 26.6715 133.959 27.7771V26.5801C131.089 25.527 128.383 24.0689 125.923 22.2496V21.2042C128.9 20.6071 133.81 19.8596 136.118 19.4127L145.94 10.4525L155.616 19.2638C157.848 19.712 163.206 20.9063 165.81 21.2056V22.102C163.55 24.0564 160.917 25.5296 158.071 26.4325V27.7771C161.317 26.6136 164.338 24.8957 167.001 22.6992V20.3052L155.914 18.2144L155.985 18.2197Z" fill="#00215D"/>
<path d="M102.245 29.3225H96.293V36.6375H102.245V29.3225Z" fill="#00215D"/>
<path d="M110.149 29.3225H104.196V36.6375H110.149V29.3225Z" fill="#00215D"/>
<path d="M118.128 29.3225H112.176V36.6375H118.128V29.3225Z" fill="#00215D"/>
<path d="M126.033 29.3225H120.081V36.6375H126.033V29.3225Z" fill="#00215D"/>
<path d="M133.182 29.3225H128.122V36.6402H133.182V29.3225Z" fill="#00215D"/>
<path d="M133.247 29.2681H98.2744V29.8652H133.247V29.2681Z" fill="#00215D"/>
<path d="M156.431 29.4744H151.52V36.6431H156.431V29.4744Z" fill="#00215D"/>
<path d="M140.582 29.4744H135.521V36.6431H140.582V29.4744Z" fill="#00215D"/>
<path d="M149.883 29.4744H142.145V36.6431H149.883V29.4744Z" fill="#00215D"/>
<path d="M156.432 30.9453H151.372V31.5425H156.432V30.9453Z" fill="#E6E7E8"/>
<path d="M140.73 30.9453H135.521V31.5425H140.73V30.9453Z" fill="#E6E7E8"/>
<path d="M150.032 30.9453H141.996V31.5425H150.032V30.9453Z" fill="#E6E7E8"/>
<path d="M6.99365 37.8879H160.002V39.2326H6.99365V37.8879Z" fill="#00215D"/>
<path d="M75.5 32.7288H78.6252V36.7613H75.5V32.7288ZM79.8154 32.7288H87.2561V36.7613H79.8154V32.7288ZM88.4476 32.7288H91.5729V36.7613H88.4476V32.7288Z" fill="#00215D"/>
<path d="M72.7476 29.324H94.3274V36.7161H92.9132V30.2204H74.1617V36.7161H72.7476V29.324Z" fill="#00215D"/>
<path d="M48.2648 18.777H118.731C119.237 18.7355 119.737 18.6351 120.22 18.4778C119.815 18.9419 119.304 19.3006 118.731 19.5232V25.4962H48.2648V19.5232C47.7128 19.2625 47.2094 18.9089 46.7764 18.4778C47.2593 18.6351 47.7588 18.7355 48.2648 18.777Z" fill="white"/>
<path d="M55.0469 20.1443H48.9448V24.774H55.0469V20.1443Z" fill="#00215D"/>
<path d="M55.0469 21.3398H48.9448V21.7881H55.0469V21.3398Z" fill="#E6E7E8"/>
<path d="M56.9238 20.1443H62.8761V24.774H56.9238V20.1443Z" fill="#00215D"/>
<path d="M64.8286 20.1443H70.7809V24.774H64.8286V20.1443Z" fill="#00215D"/>
<path d="M72.5815 20.1443H78.6783V24.774H72.5815V20.1443Z" fill="#00215D"/>
<path d="M80.5605 20.1443H86.5128V24.774H80.5605V20.1443Z" fill="#00215D"/>
<path d="M88.4653 20.1443H94.4176V24.774H88.4653V20.1443Z" fill="#00215D"/>
<path d="M96.2939 20.1443H102.391V24.774H96.2939V20.1443Z" fill="#00215D"/>
<path d="M104.196 20.1443H110.149V24.774H104.196V20.1443Z" fill="#00215D"/>
<path d="M118.053 20.1443H112.101V24.774H118.053V20.1443Z" fill="#00215D"/>
<path d="M56.9238 21.3398H62.8761V21.7881H56.9238V21.3398Z" fill="#E6E7E8"/>
<path d="M64.8286 21.3398H70.7809V21.7881H64.8286V21.3398Z" fill="#E6E7E8"/>
<path d="M72.5815 21.3398H78.6783V21.7881H72.5815V21.3398Z" fill="#E6E7E8"/>
<path d="M80.5605 21.3398H86.5128V21.7881H80.5605V21.3398Z" fill="#E6E7E8"/>
<path d="M88.4653 21.3398H94.4176V21.7881H88.4653V21.3398Z" fill="#E6E7E8"/>
<path d="M96.2939 21.3398H102.391V21.7881H96.2939V21.3398Z" fill="#E6E7E8"/>
<path d="M104.196 21.3398H110.149V21.7881H104.196V21.3398Z" fill="#E6E7E8"/>
<path d="M118.053 21.3398H112.101V21.7881H118.053V21.3398Z" fill="#E6E7E8"/>
<path d="M40.4 25.0002H126.964L128.974 25.5974H38.5444L40.4 25.0002Z" fill="white"/>
<path d="M83.5374 25.4908C81.0072 25.4908 78.1802 25.6398 75.65 25.4908L75.2034 27.8848C74.2051 28.2903 73.1514 28.5419 72.0781 28.6309V30.1245H72.2266C73.2534 30.3954 74.2976 30.595 75.3518 30.7217C76.4387 30.8425 77.5322 30.8923 78.6255 30.8707H88.4479C89.5412 30.8956 90.635 30.8458 91.7216 30.7217C92.7758 30.595 93.82 30.3954 94.8468 30.1245H94.9953V28.627C93.9248 28.5208 92.8735 28.2698 91.87 27.8808L91.4234 25.4868C88.7461 25.6398 85.4724 25.4908 83.5374 25.4908Z" fill="white"/>
<path d="M90.8324 26.2422C88.3023 26.3911 85.6237 26.3911 83.5429 26.3911C81.462 26.3911 78.7808 26.3911 76.3991 26.2422C76.3991 26.2422 76.1009 28.184 75.6555 28.4819C74.6115 28.9331 73.5095 29.2349 72.3818 29.3783C76.0838 30.0797 79.8566 30.3302 83.6184 30.1245C87.3802 30.3277 91.1527 30.0772 94.855 29.3783C93.7273 29.2349 92.6253 28.9331 91.5813 28.4819C91.1346 28.1827 90.9862 26.2422 90.9862 26.2422H90.8324Z" fill="#00215D"/>
<path d="M130.162 10.6028C125.376 10.9021 120.281 11.051 116.343 10.0057C116.19 10.0057 116.19 9.8567 116.034 9.70641C114.848 6.95708 114.118 4.03142 113.873 1.04541C113.856 1.31549 113.759 1.57426 113.593 1.78785C113.428 2.00143 113.202 2.15987 112.945 2.24242C106.567 2.98774 100.146 3.28727 93.727 3.13884H90.4825C88.167 3.2878 85.8503 3.2878 83.5348 3.2878V4.4848C93.2618 4.4848 103.837 5.08198 113.101 3.2878C113.101 3.2878 114.029 10.4565 115.572 11.3516C117.27 12.248 129.699 11.7998 129.699 11.7998C117.116 16.1303 97.9709 15.2352 83.5348 15.2352V16.7262H119.663C122.596 16.8751 127.075 14.4864 130.24 11.4993V10.6028H130.162ZM83.5348 3.2878C81.2194 3.2878 78.9026 3.2878 76.5872 3.13884H73.3453C66.9264 3.28727 60.5049 2.98774 54.1273 2.24242C53.8705 2.15987 53.6446 2.00143 53.479 1.78785C53.3135 1.57426 53.2161 1.31549 53.1996 1.04541C52.9548 4.03187 52.2246 6.95799 51.0379 9.70774C51.0312 9.78668 50.9963 9.86053 50.9395 9.91556C50.8827 9.9706 50.8079 10.0031 50.729 10.007C46.8695 11.0524 41.7748 10.9034 36.9106 10.6042V11.4993C39.9988 14.4864 44.631 16.8751 47.409 16.7262H83.5348V15.2326C69.0988 15.2326 49.8768 16.129 37.3706 11.7972C37.3706 11.7972 49.7986 12.2454 51.4978 11.349C53.0418 10.4525 53.9683 3.28514 53.9683 3.28514C63.2314 5.07666 73.9616 4.48214 83.5348 4.48214V3.28514V3.2878Z" fill="white"/>
<path d="M15.4764 29.4744H10.5659V36.6431H15.4764V29.4744Z" fill="#00215D"/>
<path d="M31.4763 29.4744H26.416V36.6431H31.4763V29.4744Z" fill="#00215D"/>
<path d="M24.9279 29.4744H17.189V36.6431H24.9279V29.4744Z" fill="#00215D"/>
<path d="M15.6262 30.9453H10.5659V31.5425H15.6262V30.9453Z" fill="#E6E7E8"/>
<path d="M31.4763 30.9453H26.2676V31.5425H31.4763V30.9453Z" fill="#E6E7E8"/>
<path d="M25.0763 30.9453H17.0405V31.5425H25.0763V30.9453Z" fill="#E6E7E8"/>
<path fill-rule="evenodd" clip-rule="evenodd" d="M43.834 72.7105C46.8398 72.7105 49.1009 74.661 49.1009 77.0621C49.1007 79.6089 46.8397 81.5582 43.834 81.5582V81.5457C40.9748 81.5454 38.567 79.5951 38.567 77.1941C38.5672 74.6473 40.9749 72.6969 43.834 72.6967V72.7105ZM43.834 74.1958C42.624 74.1962 41.573 75.5495 41.5729 77.1941C41.5729 78.6929 42.6371 80.0462 43.834 80.0465V80.0591C45.1906 79.9134 46.2423 78.7069 46.2425 77.0621C46.2425 75.5631 45.1907 74.2096 43.834 74.2096V74.1958Z" fill="#00215D"/>
<path fill-rule="evenodd" clip-rule="evenodd" d="M91.864 68.0687H95.1862V69.5791H91.864V81.0669H88.9955V74.8618C86.7273 75.4637 84.0189 75.7703 81.2974 75.9174V75.891C79.1759 76.0515 77.068 76.1988 75.1066 76.1988V74.5401C76.761 74.5401 78.1217 74.5403 79.9362 74.3931V71.8259C77.668 71.2243 76.014 69.405 76.014 67.2921C76.0143 64.7246 78.4289 62.7595 81.2974 62.7595C84.3124 62.7596 86.7266 64.7246 86.7269 67.2921C86.7269 69.405 85.0729 71.2243 82.8047 71.8259V74.2461C85.0729 74.0989 87.3412 73.9519 88.9955 73.6442V63.6681C88.9953 62.7591 88.542 62.3048 87.7818 62.3047V61.7027H91.864V68.0687ZM81.2974 64.0966C80.0832 64.0966 79.0288 65.6073 79.0288 67.2657C79.0288 69.0843 80.0832 70.4487 81.2974 70.4487V70.475C82.6581 70.475 83.7122 69.1106 83.7122 67.2921C83.712 65.634 82.658 64.123 81.2974 64.1229V64.0966Z" fill="#00215D"/>
<path d="M130.315 67.747H131.822V63.6681C131.821 62.9062 131.528 62.305 130.769 62.3047V61.7027H134.688V81.0669H131.822V69.4182H130.315L130.169 81.0669H127.303V73.0561C124.438 73.8183 120.973 74.4207 117.96 74.4208V65.3393C117.96 64.4306 117.493 63.9759 116.747 63.9759V63.374H124.145V65.0327H120.973V72.5886C123.385 72.4416 125.344 72.1472 127.303 71.8397V63.6681C127.303 62.7589 126.836 62.3047 126.09 62.3047V61.7027H130.315V67.747Z" fill="#00215D"/>
<path d="M49.9239 72.5333H46.9482V67.4215L43.6701 67.5685V65.9174H46.9482V63.5085C46.9482 62.6033 46.5009 62.1513 45.7635 62.1513V61.5381H49.7802L49.9239 72.5333Z" fill="#00215D"/>
<path d="M39.5577 63.2898H43.0261C42.5727 64.474 41.6778 66.106 40.4638 67.3034L44.9872 70.132L42.8786 71.9214L39.264 68.6454C37.3031 70.2902 34.8874 71.7765 32.6195 72.3687L32.3133 71.6198C35.635 69.988 38.1958 67.0001 38.5028 64.7764H33.3669V63.2898H36.6891V61.2102H39.5577V63.2898Z" fill="#00215D"/>
<path d="M64.0863 49.3554H64.6912V47.5221C64.6912 47.2254 64.5431 46.9151 64.2337 46.9151V46.6047H65.8898V55.1383H64.6786V49.9485H64.0724V55.1383H62.6999V51.6336C61.4886 51.9301 59.9679 52.2405 58.595 52.2406V48.2773C58.595 47.8191 58.4463 47.6703 57.9888 47.6703V47.3738H61.34V48.129H59.82V51.4854C60.8831 51.337 61.7986 51.175 62.7137 51.0267V47.5221C62.7137 47.0637 62.5651 46.9151 62.1075 46.9151V46.6047H64.0863V49.3554Z" fill="#00215D"/>
<path d="M76.1073 54.3554H80.5374V55.1383H74.8911V52.9681C74.8911 52.6523 74.5943 52.5007 74.2836 52.5007V52.1853H76.1073V54.3554Z" fill="#00215D"/>
<path d="M90.1058 52.1727V54.3529H94.3632V55.1383H88.7321V52.9593C88.7321 52.4903 88.5832 52.3386 88.2733 52.3386V52.0207L90.1058 52.1727Z" fill="#00215D"/>
<path d="M108.111 46.7694C108.111 47.8303 107.953 48.8916 107.211 49.657H109.012V50.274H105.41V51.792H107.952V54.9749H106.761V52.5434H101.518V51.7781H104.06V50.2614H100.618V49.657H106.456C106.615 49.0528 106.761 48.1392 106.761 47.5346H101.372V46.7694H108.111Z" fill="#00215D"/>
<path d="M94.1981 52.6779H92.992V47.5183C92.9919 47.0487 92.8441 46.9004 92.3883 46.9139V46.6047H94.1981V52.6779Z" fill="#00215D"/>
<path d="M80.3382 49.0388H81.5255V49.7902H80.3382V52.6766H79.1497V47.5208C79.1494 47.2258 78.8624 47.0647 78.5624 47.0647V46.7694H80.3382V49.0388Z" fill="#00215D"/>
<path d="M89.4026 47.8651H88.4775V50.5995H89.4026V51.3647H87.2398V48.0121C87.2396 47.7039 86.94 47.409 86.6273 47.409V47.2619H89.4026V47.8651Z" fill="#00215D"/>
<path d="M91.5653 51.3647H89.4164V50.6133H90.3415V47.8789H89.4164V47.2758H91.5653V51.3647Z" fill="#00215D"/>
<path d="M75.5049 48.2861H75.5112C75.0588 48.2922 74.609 48.9131 74.6088 49.52C74.6088 50.1407 75.0587 50.7467 75.5112 50.7528L75.5049 50.754V51.3635C74.3074 51.3579 73.4039 50.5872 73.4039 49.52C73.4041 49.0592 73.6987 48.4495 74.0063 48.1378H72.8027V47.5271H74.9163V46.6047H75.5049V48.2861Z" fill="#00215D"/>
<path d="M76.2674 47.5271H78.2335V48.1378H77.0299C77.4845 48.5987 77.7922 49.0593 77.7924 49.52C77.7924 50.5873 76.7296 51.3448 75.5175 51.3635V50.754L75.5112 50.7528C76.11 50.7483 76.561 50.1279 76.561 49.52C76.5608 48.8987 76.1098 48.2905 75.5112 48.2861H75.5175V46.6047H76.2674V47.5271Z" fill="#00215D"/>
<path d="M50.4179 50.8596H6.47266V49.8995H50.4179V50.8596Z" fill="#00215D"/>
<path d="M160.527 50.8596H116.582V49.8995H160.527V50.8596Z" fill="#00215D"/>
</svg>
